{
    "asset" : {
        "generator" : "Khronos glTF Blender I/O v1.3.48",
        "version" : "2.0"
    },
    "scene" : 0,
    "scenes" : [
        {
            "name" : "Scene",
            "nodes" : [
                0,
                1,
                2,
                3,
                4,
                5,
                6,
                7,
                8
            ]
        }
    ],
    "nodes" : [
        {
            "mesh" : 0,
            "name" : "fff",
            "rotation" : [
                0,
                0.26019129157066345,
                0,
                0.9655570983886719
            ],
            "scale" : [
                0.3632175922393799,
                0.05987931415438652,
                0.3632175922393799
            ],
            "translation" : [
                0.33472076058387756,
                -0.2554140090942383,
                -1.3863147497177124
            ]
        },
        {
            "mesh" : 1,
            "name" : "cubo",
            "rotation" : [
                -0.3805842399597168,
                -0.5952529907226562,
                0.596107542514801,
                -0.38142532110214233
            ],
            "scale" : [
                0.4055818021297455,
                0.2823554575443268,
                1.0189402103424072
            ],
            "translation" : [
                0.33024629950523376,
                0.842612624168396,
                0.10422879457473755
            ]
        },
        {
            "mesh" : 2,
            "name" : "torre",
            "rotation" : [
                0,
                0.22110502421855927,
                0,
                0.9752500057220459
            ],
            "scale" : [
                0.5566544532775879,
                0.5566544532775879,
                0.5566544532775879
            ],
            "translation" : [
                0.3057360053062439,
                0.8954377174377441,
                1.8847320079803467
            ]
        },
        {
            "mesh" : 3,
            "name" : "luz tore1",
            "rotation" : [
                0,
                0.22110502421855927,
                0,
                0.9752500057220459
            ],
            "scale" : [
                0.5566544532775879,
                0.5566544532775879,
                0.5566544532775879
            ],
            "translation" : [
                0.3057360053062439,
                0.8954377174377441,
                1.8847320079803467
            ]
        },
        {
            "mesh" : 4,
            "name" : "cubo.001",
            "rotation" : [
                -0.3805842399597168,
                -0.5952529907226562,
                0.596107542514801,
                -0.38142532110214233
            ],
            "scale" : [
                0.4055818021297455,
                0.2823554575443268,
                1.0189402103424072
            ],
            "translation" : [
                0.33024629950523376,
                0.842612624168396,
                0.10422879457473755
            ]
        },
        {
            "mesh" : 5,
            "name" : "Cilindro",
            "scale" : [
                0.7808305621147156,
                0.7808305621147156,
                0.7808305621147156
            ],
            "translation" : [
                0.24908193945884705,
                -0.1021910011768341,
                -1.2850334644317627
            ]
        },
        {
            "mesh" : 6,
            "name" : "Cilindro.001",
            "rotation" : [
                0,
                -0.9441211819648743,
                0,
                0.3295985460281372
            ],
            "scale" : [
                0.44661375880241394,
                0.44661372900009155,
                0.44661375880241394
            ],
            "translation" : [
                0.38481420278549194,
                -0.11878274381160736,
                -1.507246971130371
            ]
        },
        {
            "mesh" : 7,
            "name" : "Cubo",
            "scale" : [
                0.07716436684131622,
                0.07716436684131622,
                0.07716436684131622
            ],
            "translation" : [
                0.23127922415733337,
                0.7565189003944397,
                -1.5244522094726562
            ]
        },
        {
            "mesh" : 8,
            "name" : "Cubo.001",
            "scale" : [
                0.029657982289791107,
                0.029657982289791107,
                0.029657982289791107
            ],
            "translation" : [
                0.3966209590435028,
                0.41743433475494385,
                -1.4138832092285156
            ]
        }
    ],
    "materials" : [
        {
            "doubleSided" : true,
            "emissiveFactor" : [
                0,
                0,
                0
            ],
            "name" : "cubo",
            "pbrMetallicRoughness" : {
                "baseColorFactor" : [
                    0.8000000715255737,
                    0.05262928083539009,
                    0.12925153970718384,
                    1
                ],
                "metallicFactor" : 0.3809523582458496,
                "roughnessFactor" : 0.11904799938201904
            }
        },
        {
            "doubleSided" : true,
            "emissiveFactor" : [
                0,
                0,
                0
            ],
            "name" : "totem2",
            "pbrMetallicRoughness" : {
                "baseColorFactor" : [
                    1,
                    1,
                    1,
                    1
                ],
                "metallicFactor" : 0,
                "roughnessFactor" : 1
            }
        },
        {
            "doubleSided" : true,
            "emissiveFactor" : [
                0,
                0,
                0
            ],
            "name" : "DOraDo",
            "pbrMetallicRoughness" : {
                "metallicFactor" : 0,
                "roughnessFactor" : 0.5857142806053162
            }
        },
        {
            "doubleSided" : true,
            "emissiveFactor" : [
                0.2238095998764038,
                1,
                1
            ],
            "name" : "light",
            "pbrMetallicRoughness" : {}
        },
        {
            "doubleSided" : true,
            "emissiveFactor" : [
                1,
                0.0949968621134758,
                0.4990011751651764
            ],
            "name" : "luzmorada",
            "pbrMetallicRoughness" : {}
        },
        {
            "doubleSided" : true,
            "emissiveFactor" : [
                0,
                0,
                0
            ],
            "name" : "madera",
            "pbrMetallicRoughness" : {
                "baseColorFactor" : [
                    0.9239169955253601,
                    0.366281121969223,
                    0.2211100459098816,
                    1
                ],
                "metallicFactor" : 0,
                "roughnessFactor" : 1
            }
        },
        {
            "doubleSided" : true,
            "emissiveFactor" : [
                0.28235724568367004,
                1,
                0.7929811477661133
            ],
            "name" : "luz",
            "pbrMetallicRoughness" : {}
        },
        {
            "doubleSided" : true,
            "emissiveFactor" : [
                1,
                0.9358710646629333,
                0.210879385471344
            ],
            "name" : "luza",
            "pbrMetallicRoughness" : {}
        }
    ],
    "meshes" : [
        {
            "name" : "Cubo.020",
            "primitives" : [
                {
                    "attributes" : {
                        "POSITION" : 0,
                        "NORMAL" : 1,
                        "TEXCOORD_0" : 2
                    },
                    "indices" : 3,
                    "material" : 0
                }
            ]
        },
        {
            "name" : "Cubo.036",
            "primitives" : [
                {
                    "attributes" : {
                        "POSITION" : 4,
                        "NORMAL" : 5,
                        "TEXCOORD_0" : 6
                    },
                    "indices" : 7,
                    "material" : 1
                }
            ]
        },
        {
            "name" : "Cubo.001",
            "primitives" : [
                {
                    "attributes" : {
                        "POSITION" : 8,
                        "NORMAL" : 9,
                        "TEXCOORD_0" : 10
                    },
                    "indices" : 11,
                    "material" : 2
                }
            ]
        },
        {
            "name" : "Cubo.000",
            "primitives" : [
                {
                    "attributes" : {
                        "POSITION" : 12,
                        "NORMAL" : 13,
                        "TEXCOORD_0" : 14
                    },
                    "indices" : 15,
                    "material" : 3
                }
            ]
        },
        {
            "name" : "Cubo.002",
            "primitives" : [
                {
                    "attributes" : {
                        "POSITION" : 16,
                        "NORMAL" : 17,
                        "TEXCOORD_0" : 18
                    },
                    "indices" : 19,
                    "material" : 4
                }
            ]
        },
        {
            "name" : "Cilindro",
            "primitives" : [
                {
                    "attributes" : {
                        "POSITION" : 20,
                        "NORMAL" : 21,
                        "TEXCOORD_0" : 22
                    },
                    "indices" : 23,
                    "material" : 5
                }
            ]
        },
        {
            "name" : "Cilindro.001",
            "primitives" : [
                {
                    "attributes" : {
                        "POSITION" : 24,
                        "NORMAL" : 25,
                        "TEXCOORD_0" : 26
                    },
                    "indices" : 27,
                    "material" : 5
                }
            ]
        },
        {
            "name" : "Cubo",
            "primitives" : [
                {
                    "attributes" : {
                        "POSITION" : 28,
                        "NORMAL" : 29,
                        "TEXCOORD_0" : 30
                    },
                    "indices" : 31,
                    "material" : 6
                }
            ]
        },
        {
            "name" : "Cubo.003",
            "primitives" : [
                {
                    "attributes" : {
                        "POSITION" : 32,
                        "NORMAL" : 33,
                        "TEXCOORD_0" : 34
                    },
                    "indices" : 31,
                    "material" : 7
                }
            ]
        }
    ],
    "accessors" : [
        {
            "bufferView" : 0,
            "componentType" : 5126,
            "count" : 266,
            "max" : [
                1.0010501146316528,
                8.650003433227539,
                0.9986708164215088
            ],
            "min" : [
                -0.9989498853683472,
                -6.23976469039917,
                -1.0013291835784912
            ],
            "type" : "VEC3"
        },
        {
            "bufferView" : 1,
            "componentType" : 5126,
            "count" : 266,
            "type" : "VEC3"
        },
        {
            "bufferView" : 2,
            "componentType" : 5126,
            "count" : 266,
            "type" : "VEC2"
        },
        {
            "bufferView" : 3,
            "componentType" : 5123,
            "count" : 576,
            "type" : "SCALAR"
        },
        {
            "bufferView" : 4,
            "componentType" : 5126,
            "count" : 179,
            "max" : [
                0.928239643573761,
                1.2289795875549316,
                1.4518202543258667
            ],
            "min" : [
                -1.0179929733276367,
                -1.1850254535675049,
                -1.4651224613189697
            ],
            "type" : "VEC3"
        },
        {
            "bufferView" : 5,
            "componentType" : 5126,
            "count" : 179,
            "type" : "VEC3"
        },
        {
            "bufferView" : 6,
            "componentType" : 5126,
            "count" : 179,
            "type" : "VEC2"
        },
        {
            "bufferView" : 7,
            "componentType" : 5123,
            "count" : 342,
            "type" : "SCALAR"
        },
        {
            "bufferView" : 8,
            "componentType" : 5126,
            "count" : 233,
            "max" : [
                0.6973364353179932,
                3.418172836303711,
                0.7978156805038452
            ],
            "min" : [
                -1.3026635646820068,
                -2.7652034759521484,
                -1.2021843194961548
            ],
            "type" : "VEC3"
        },
        {
            "bufferView" : 9,
            "componentType" : 5126,
            "count" : 233,
            "type" : "VEC3"
        },
        {
            "bufferView" : 10,
            "componentType" : 5126,
            "count" : 233,
            "type" : "VEC2"
        },
        {
            "bufferView" : 11,
            "componentType" : 5123,
            "count" : 429,
            "type" : "SCALAR"
        },
        {
            "bufferView" : 12,
            "componentType" : 5126,
            "count" : 25,
            "max" : [
                0.5775206089019775,
                2.150787353515625,
                0.7133206129074097
            ],
            "min" : [
                -0.9668539762496948,
                -2.5904250144958496,
                -0.9918688535690308
            ],
            "type" : "VEC3"
        },
        {
            "bufferView" : 13,
            "componentType" : 5126,
            "count" : 25,
            "type" : "VEC3"
        },
        {
            "bufferView" : 14,
            "componentType" : 5126,
            "count" : 25,
            "type" : "VEC2"
        },
        {
            "bufferView" : 15,
            "componentType" : 5123,
            "count" : 45,
            "type" : "SCALAR"
        },
        {
            "bufferView" : 16,
            "componentType" : 5126,
            "count" : 84,
            "max" : [
                0.7985818386077881,
                0.8391085863113403,
                0.637684166431427
            ],
            "min" : [
                -0.7982068657875061,
                -1.1850254535675049,
                -1.379447340965271
            ],
            "type" : "VEC3"
        },
        {
            "bufferView" : 17,
            "componentType" : 5126,
            "count" : 84,
            "type" : "VEC3"
        },
        {
            "bufferView" : 18,
            "componentType" : 5126,
            "count" : 84,
            "type" : "VEC2"
        },
        {
            "bufferView" : 19,
            "componentType" : 5123,
            "count" : 132,
            "type" : "SCALAR"
        },
        {
            "bufferView" : 20,
            "componentType" : 5126,
            "count" : 204,
            "max" : [
                0.09464967250823975,
                1.4282665252685547,
                0.1382465362548828
            ],
            "min" : [
                -0.09464967250823975,
                -0.10929214954376221,
                -0.33980610966682434
            ],
            "type" : "VEC3"
        },
        {
            "bufferView" : 21,
            "componentType" : 5126,
            "count" : 204,
            "type" : "VEC3"
        },
        {
            "bufferView" : 22,
            "componentType" : 5126,
            "count" : 204,
            "type" : "VEC2"
        },
        {
            "bufferView" : 23,
            "componentType" : 5123,
            "count" : 312,
            "type" : "SCALAR"
        },
        {
            "bufferView" : 24,
            "componentType" : 5126,
            "count" : 180,
            "max" : [
                0.09464967250823975,
                1.493327260017395,
                0.1382465362548828
            ],
            "min" : [
                -0.09464967250823975,
                -0.10929214954376221,
                -0.19227851927280426
            ],
            "type" : "VEC3"
        },
        {
            "bufferView" : 25,
            "componentType" : 5126,
            "count" : 180,
            "type" : "VEC3"
        },
        {
            "bufferView" : 26,
            "componentType" : 5126,
            "count" : 180,
            "type" : "VEC2"
        },
        {
            "bufferView" : 27,
            "componentType" : 5123,
            "count" : 276,
            "type" : "SCALAR"
        },
        {
            "bufferView" : 28,
            "componentType" : 5126,
            "count" : 24,
            "max" : [
                1,
                1,
                1
            ],
            "min" : [
                -1,
                -1,
                -1
            ],
            "type" : "VEC3"
        },
        {
            "bufferView" : 29,
            "componentType" : 5126,
            "count" : 24,
            "type" : "VEC3"
        },
        {
            "bufferView" : 30,
            "componentType" : 5126,
            "count" : 24,
            "type" : "VEC2"
        },
        {
            "bufferView" : 31,
            "componentType" : 5123,
            "count" : 36,
            "type" : "SCALAR"
        },
        {
            "bufferView" : 32,
            "componentType" : 5126,
            "count" : 24,
            "max" : [
                1,
                1,
                1
            ],
            "min" : [
                -1,
                -1,
                -1
            ],
            "type" : "VEC3"
        },
        {
            "bufferView" : 33,
            "componentType" : 5126,
            "count" : 24,
            "type" : "VEC3"
        },
        {
            "bufferView" : 34,
            "componentType" : 5126,
            "count" : 24,
            "type" : "VEC2"
        }
    ],
    "bufferViews" : [
        {
            "buffer" : 0,
            "byteLength" : 3192,
            "byteOffset" : 0
        },
        {
            "buffer" : 0,
            "byteLength" : 3192,
            "byteOffset" : 3192
        },
        {
            "buffer" : 0,
            "byteLength" : 2128,
            "byteOffset" : 6384
        },
        {
            "buffer" : 0,
            "byteLength" : 1152,
            "byteOffset" : 8512
        },
        {
            "buffer" : 0,
            "byteLength" : 2148,
            "byteOffset" : 9664
        },
        {
            "buffer" : 0,
            "byteLength" : 2148,
            "byteOffset" : 11812
        },
        {
            "buffer" : 0,
            "byteLength" : 1432,
            "byteOffset" : 13960
        },
        {
            "buffer" : 0,
            "byteLength" : 684,
            "byteOffset" : 15392
        },
        {
            "buffer" : 0,
            "byteLength" : 2796,
            "byteOffset" : 16076
        },
        {
            "buffer" : 0,
            "byteLength" : 2796,
            "byteOffset" : 18872
        },
        {
            "buffer" : 0,
            "byteLength" : 1864,
            "byteOffset" : 21668
        },
        {
            "buffer" : 0,
            "byteLength" : 858,
            "byteOffset" : 23532
        },
        {
            "buffer" : 0,
            "byteLength" : 300,
            "byteOffset" : 24392
        },
        {
            "buffer" : 0,
            "byteLength" : 300,
            "byteOffset" : 24692
        },
        {
            "buffer" : 0,
            "byteLength" : 200,
            "byteOffset" : 24992
        },
        {
            "buffer" : 0,
            "byteLength" : 90,
            "byteOffset" : 25192
        },
        {
            "buffer" : 0,
            "byteLength" : 1008,
            "byteOffset" : 25284
        },
        {
            "buffer" : 0,
            "byteLength" : 1008,
            "byteOffset" : 26292
        },
        {
            "buffer" : 0,
            "byteLength" : 672,
            "byteOffset" : 27300
        },
        {
            "buffer" : 0,
            "byteLength" : 264,
            "byteOffset" : 27972
        },
        {
            "buffer" : 0,
            "byteLength" : 2448,
            "byteOffset" : 28236
        },
        {
            "buffer" : 0,
            "byteLength" : 2448,
            "byteOffset" : 30684
        },
        {
            "buffer" : 0,
            "byteLength" : 1632,
            "byteOffset" : 33132
        },
        {
            "buffer" : 0,
            "byteLength" : 624,
            "byteOffset" : 34764
        },
        {
            "buffer" : 0,
            "byteLength" : 2160,
            "byteOffset" : 35388
        },
        {
            "buffer" : 0,
            "byteLength" : 2160,
            "byteOffset" : 37548
        },
        {
            "buffer" : 0,
            "byteLength" : 1440,
            "byteOffset" : 39708
        },
        {
            "buffer" : 0,
            "byteLength" : 552,
            "byteOffset" : 41148
        },
        {
            "buffer" : 0,
            "byteLength" : 288,
            "byteOffset" : 41700
        },
        {
            "buffer" : 0,
            "byteLength" : 288,
            "byteOffset" : 41988
        },
        {
            "buffer" : 0,
            "byteLength" : 192,
            "byteOffset" : 42276
        },
        {
            "buffer" : 0,
            "byteLength" : 72,
            "byteOffset" : 42468
        },
        {
            "buffer" : 0,
            "byteLength" : 288,
            "byteOffset" : 42540
        },
        {
            "buffer" : 0,
            "byteLength" : 288,
            "byteOffset" : 42828
        },
        {
            "buffer" : 0,
            "byteLength" : 192,
            "byteOffset" : 43116
        }
    ],
    "buffers" : [
        {
            "byteLength" : 43308,
            "uri" : "data:application/octet-stream;base64,"
        }
    ]
}
